name Walk9.mot
datacolumns 19
datarows 25
range 3.57000000 3.59400000
endheader

                time	   L_ground_force_vx	   L_ground_force_vy	   L_ground_force_vz	   L_ground_force_px	   L_ground_force_py	   L_ground_force_pz	   R_ground_force_vx	   R_ground_force_vy	   R_ground_force_vz	   R_ground_force_px	   R_ground_force_py	   R_ground_force_pz	   L_ground_torque_x	   L_ground_torque_y	   L_ground_torque_z	   R_ground_torque_x	   R_ground_torque_y	   R_ground_torque_z	
          3.57000000	          0.00000000	          0.00000000	          0.00000000	          0.00000000	          0.00000000	          0.00000000	         19.87375584	        741.98389419	         37.55839102	         -0.13610985	          0.00000000	         -0.04980835	          0.00000000	          0.00000000	          0.00000000	          0.00000000	          1.22750059	          0.00000000	
          3.57100000	          0.00000000	          0.00000000	          0.00000000	          0.00000000	          0.00000000	          0.00000000	         20.68591840	        743.92084840	         37.88776670	         -0.13585652	          0.00000000	         -0.04986463	          0.00000000	          0.00000000	          0.00000000	          0.00000000	          1.21226476	          0.00000000	
          3.57200000	          0.00000000	          0.00000000	          0.00000000	          0.00000000	          0.00000000	          0.00000000	         21.51061194	        745.93113714	         38.24368067	         -0.13559679	          0.00000000	         -0.04991838	          0.00000000	          0.00000000	          0.00000000	          0.00000000	          1.23373664	          0.00000000	
          3.57300000	          0.00000000	          0.00000000	          0.00000000	          0.00000000	          0.00000000	          0.00000000	         22.36127498	        748.03610847	         38.61125219	         -0.13534994	          0.00000000	         -0.04994927	          0.00000000	          0.00000000	          0.00000000	          0.00000000	          1.28335893	          0.00000000	
          3.57400000	          0.00000000	          0.00000000	          0.00000000	          0.00000000	          0.00000000	          0.00000000	         23.25527934	        750.22356570	         38.97562659	         -0.13511871	          0.00000000	         -0.04995937	          0.00000000	          0.00000000	          0.00000000	          0.00000000	          1.34662871	          0.00000000	
          3.57500000	          0.00000000	          0.00000000	          0.00000000	          0.00000000	          0.00000000	          0.00000000	         24.19112396	        752.39830353	         39.31497198	         -0.13488442	          0.00000000	         -0.04996363	          0.00000000	          0.00000000	          0.00000000	          0.00000000	          1.41022061	          0.00000000	
          3.57600000	          0.00000000	          0.00000000	          0.00000000	          0.00000000	          0.00000000	          0.00000000	         25.14730375	        754.45090812	         39.62111758	         -0.13463171	          0.00000000	         -0.04998289	          0.00000000	          0.00000000	          0.00000000	          0.00000000	          1.46140137	          0.00000000	
          3.57700000	          0.00000000	          0.00000000	          0.00000000	          0.00000000	          0.00000000	          0.00000000	         26.10367122	        756.35445362	         39.90860049	         -0.13437080	          0.00000000	         -0.05003754	          0.00000000	          0.00000000	          0.00000000	          0.00000000	          1.48489908	          0.00000000	
          3.57800000	          0.00000000	          0.00000000	          0.00000000	          0.00000000	          0.00000000	          0.00000000	         27.05229172	        758.14474221	         40.18405907	         -0.13412685	          0.00000000	         -0.05012868	          0.00000000	          0.00000000	          0.00000000	          0.00000000	          1.47029381	          0.00000000	
          3.57900000	          0.00000000	          0.00000000	          0.00000000	          0.00000000	          0.00000000	          0.00000000	         27.98270755	        759.84548421	         40.43306996	         -0.13391313	          0.00000000	         -0.05023304	          0.00000000	          0.00000000	          0.00000000	          0.00000000	          1.42616256	          0.00000000	
          3.58000000	          0.00000000	          0.00000000	          0.00000000	          0.00000000	          0.00000000	          0.00000000	         28.87604450	        761.46506663	         40.64729277	         -0.13372383	          0.00000000	         -0.05032132	          0.00000000	          0.00000000	          0.00000000	          0.00000000	          1.37684206	          0.00000000	
          3.58100000	          0.00000000	          0.00000000	          0.00000000	          0.00000000	          0.00000000	          0.00000000	         29.72528546	        763.03922357	         40.83869920	         -0.13354786	          0.00000000	         -0.05037872	          0.00000000	          0.00000000	          0.00000000	          0.00000000	          1.34150960	          0.00000000	
          3.58200000	          0.00000000	          0.00000000	          0.00000000	          0.00000000	          0.00000000	          0.00000000	         30.54562373	        764.64203370	         41.02136788	         -0.13338380	          0.00000000	         -0.05040719	          0.00000000	          0.00000000	          0.00000000	          0.00000000	          1.32325380	          0.00000000	
          3.58300000	          0.00000000	          0.00000000	          0.00000000	          0.00000000	          0.00000000	          0.00000000	         31.35890016	        766.35710568	         41.19891156	         -0.13324010	          0.00000000	         -0.05041431	          0.00000000	          0.00000000	          0.00000000	          0.00000000	          1.31651489	          0.00000000	
          3.58400000	          0.00000000	          0.00000000	          0.00000000	          0.00000000	          0.00000000	          0.00000000	         32.17847124	        768.23851621	         41.37499983	         -0.13311876	          0.00000000	         -0.05040957	          0.00000000	          0.00000000	          0.00000000	          0.00000000	          1.31833188	          0.00000000	
          3.58500000	          0.00000000	          0.00000000	          0.00000000	          0.00000000	          0.00000000	          0.00000000	         33.00921815	        770.28766873	         41.56253820	         -0.13300206	          0.00000000	         -0.05040355	          0.00000000	          0.00000000	          0.00000000	          0.00000000	          1.33199753	          0.00000000	
          3.58600000	          0.00000000	          0.00000000	          0.00000000	          0.00000000	          0.00000000	          0.00000000	         33.85172645	        772.45338795	         41.77165755	         -0.13285981	          0.00000000	         -0.05039944	          0.00000000	          0.00000000	          0.00000000	          0.00000000	          1.36057189	          0.00000000	
          3.58700000	          0.00000000	          0.00000000	          0.00000000	          0.00000000	          0.00000000	          0.00000000	         34.70487363	        774.64628002	         41.98920128	         -0.13267159	          0.00000000	         -0.05039304	          0.00000000	          0.00000000	          0.00000000	          0.00000000	          1.39728921	          0.00000000	
          3.58800000	          0.00000000	          0.00000000	          0.00000000	          0.00000000	          0.00000000	          0.00000000	         35.56921304	        776.77511946	         42.18247390	         -0.13244167	          0.00000000	         -0.05037865	          0.00000000	          0.00000000	          0.00000000	          0.00000000	          1.42568218	          0.00000000	
          3.58900000	          0.00000000	          0.00000000	          0.00000000	          0.00000000	          0.00000000	          0.00000000	         36.44742718	        778.79690741	         42.32789543	         -0.13219383	          0.00000000	         -0.05034755	          0.00000000	          0.00000000	          0.00000000	          0.00000000	          1.42975344	          0.00000000	
          3.59000000	          0.00000000	          0.00000000	          0.00000000	          0.00000000	          0.00000000	          0.00000000	         37.33672557	        780.71558769	         42.42653729	         -0.13195878	          0.00000000	         -0.05029531	          0.00000000	          0.00000000	          0.00000000	          0.00000000	          1.40367940	          0.00000000	
          3.59100000	          0.00000000	          0.00000000	          0.00000000	          0.00000000	          0.00000000	          0.00000000	         38.22426513	        782.53885819	         42.49632127	         -0.13176272	          0.00000000	         -0.05023896	          0.00000000	          0.00000000	          0.00000000	          0.00000000	          1.35596626	          0.00000000	
          3.59200000	          0.00000000	          0.00000000	          0.00000000	          0.00000000	          0.00000000	          0.00000000	         39.10008963	        784.28856566	         42.55887288	         -0.13161819	          0.00000000	         -0.05021744	          0.00000000	          0.00000000	          0.00000000	          0.00000000	          1.30502819	          0.00000000	
          3.59300000	          0.00000000	          0.00000000	          0.00000000	          0.00000000	          0.00000000	          0.00000000	         39.96921820	        786.03713724	         42.62844645	         -0.13152371	          0.00000000	         -0.05026077	          0.00000000	          0.00000000	          0.00000000	          0.00000000	          1.26827834	          0.00000000	
          3.59400000	          0.00000000	          0.00000000	          0.00000000	          0.00000000	          0.00000000	          0.00000000	         40.84589193	        787.88367839	         42.70950380	         -0.13147051	          0.00000000	         -0.05035673	          0.00000000	          0.00000000	          0.00000000	          0.00000000	          1.25450545	          0.00000000	
